<?xml version="1.0" standalone="no"?>
<!DOCTYPE svg PUBLIC "-//W3C//DTD SVG 20010904//EN"
 "http://www.w3.org/TR/2001/REC-SVG-20010904/DTD/svg10.dtd">
<svg version="1.0" xmlns="http://www.w3.org/2000/svg"
 width="512.000000pt" height="512.000000pt" viewBox="0 0 512.000000 512.000000"
 preserveAspectRatio="xMidYMid meet">
<metadata>
Created by potrace 1.14, written by Peter Selinger 2001-2017
</metadata>
<g transform="translate(0.000000,512.000000) scale(0.100000,-0.100000)"
fill="#000000" stroke="none">
<path d="M3384 4427 c-137 -161 -234 -345 -234 -442 0 -139 111 -252 245 -248
73 2 125 7 120 12 -2 2 15 17 38 35 95 72 123 193 74 316 -32 78 -103 195
-171 282 l-53 67 -19 -22z"/>
<path d="M1675 4394 c-67 -81 -127 -175 -168 -262 -50 -109 -54 -180 -14 -257
33 -61 51 -85 66 -85 6 0 11 -3 11 -8 0 -15 86 -45 132 -46 27 -1 48 -5 48
-11 0 -5 4 -3 10 5 5 8 12 12 15 8 4 -4 27 5 51 18 25 14 50 22 56 18 6 -4 8
-3 4 4 -3 6 5 22 18 37 77 83 85 188 23 325 -39 85 -187 300 -207 300 -4 0
-25 -21 -45 -46z"/>
<path d="M2529 4409 c-13 -17 -29 -36 -35 -43 -54 -58 -168 -259 -180 -317
-17 -86 10 -190 64 -240 59 -54 101 -72 171 -73 36 0 73 3 81 6 63 23 79 31
84 44 3 8 13 14 21 14 9 0 13 5 10 10 -3 6 -2 10 4 10 5 0 21 24 36 54 61 126
15 263 -172 509 -24 31 -48 57 -52 57 -5 0 -19 -14 -32 -31z"/>
<path d="M1544 3374 c-47 -17 -106 -69 -130 -116 -9 -18 -34 -82 -55 -143 -64
-189 -276 -807 -296 -865 -14 -42 -19 -81 -18 -163 0 -60 -3 -111 -7 -114 -5
-2 -5 -10 -1 -16 12 -19 10 -297 -2 -297 -7 0 -6 -3 0 -8 9 -6 13 -156 5 -187
-1 -5 -1 -14 0 -20 8 -26 5 -451 -2 -462 -5 -6 -5 -14 0 -17 10 -6 9 -102 -1
-112 -4 -4 -2 -13 3 -20 6 -6 10 -16 8 -20 -4 -15 21 -78 40 -99 36 -43 84
-56 205 -56 63 0 126 5 141 11 15 5 32 7 38 4 6 -4 8 -2 4 4 -3 6 2 17 13 24
42 30 60 87 62 196 1 96 3 103 20 99 11 -3 19 -1 19 3 0 9 64 5 80 -5 5 -3 10
-2 10 2 0 10 53 9 69 -2 6 -3 11 -2 11 2 0 10 53 9 69 -2 6 -3 11 -2 11 2 0
10 58 9 67 0 3 -3 15 -2 27 2 11 5 44 5 73 2 29 -4 50 -5 48 -2 -3 5 62 5 75
1 3 -2 10 -1 15 0 8 1 127 1 225 0 8 -1 62 -1 120 0 58 0 112 0 120 -1 8 0 41
1 73 3 32 2 61 0 63 -4 3 -5 10 -5 16 -2 13 8 156 9 164 1 3 -2 20 -1 37 3 18
4 56 4 84 0 29 -3 50 -4 48 -1 -4 8 85 5 92 -3 3 -3 13 -1 22 4 10 5 23 5 30
1 7 -5 27 -5 45 -1 17 4 55 4 83 0 29 -3 50 -4 48 -1 -2 5 68 5 142 2 8 -1 12
-37 15 -114 3 -102 6 -117 28 -150 41 -61 89 -78 224 -78 94 0 122 4 153 20
91 46 100 76 99 334 -1 115 2 211 7 214 4 2 4 10 0 16 -10 16 -11 137 -1 143
5 3 5 11 1 17 -12 19 -10 137 2 137 7 0 7 3 0 8 -14 10 -14 304 0 314 7 5 7 8
0 8 -9 0 -13 173 -5 190 1 3 1 10 0 15 -1 6 -3 37 -5 70 -2 51 -76 300 -115
390 -5 11 -39 108 -75 215 -191 562 -172 516 -226 568 -77 76 -17 72 -1103 71
-819 0 -977 -3 -1012 -15z m1890 -349 c4 -14 4 -31 0 -37 -4 -6 -3 -8 3 -5 6
4 13 -3 16 -16 2 -12 28 -87 56 -166 27 -79 48 -148 45 -153 -3 -4 -1 -8 4 -8
4 0 15 -22 24 -50 l16 -50 -1040 0 c-828 0 -1039 3 -1035 13 2 6 19 55 37 107
18 52 37 97 41 98 5 2 7 7 4 12 -4 7 33 127 54 175 5 11 14 39 20 62 l12 42
868 1 869 0 6 -25z m-1924 -840 c0 -6 3 -7 8 0 10 14 85 16 94 2 5 -7 8 -8 8
-2 0 7 333 11 1050 11 l1050 0 9 -36 c5 -19 9 -210 9 -425 l1 -390 -1177 0
-1177 0 -1 400 c-2 465 -4 453 76 452 27 -1 50 -6 50 -12z"/>
<path d="M1995 2171 c-3 -5 -2 -12 3 -15 5 -3 9 1 9 9 0 17 -3 19 -12 6z"/>
<path d="M2475 2171 c-3 -5 -2 -12 3 -15 5 -3 9 1 9 9 0 17 -3 19 -12 6z"/>
<path d="M2955 2171 c-3 -5 -2 -12 3 -15 5 -3 9 1 9 9 0 17 -3 19 -12 6z"/>
<path d="M3435 2171 c-3 -5 -2 -12 3 -15 5 -3 9 1 9 9 0 17 -3 19 -12 6z"/>
<path d="M1835 2160 c3 -5 8 -10 11 -10 2 0 4 5 4 10 0 6 -5 10 -11 10 -5 0
-7 -4 -4 -10z"/>
<path d="M1733 2016 c-54 -14 -127 -75 -154 -129 -32 -62 -36 -152 -10 -211
11 -27 18 -53 14 -59 -3 -5 -2 -7 4 -4 5 3 24 -9 41 -28 64 -67 184 -89 275
-50 57 24 122 95 138 152 58 201 -109 380 -308 329z"/>
<path d="M3247 2015 c-141 -36 -220 -209 -158 -350 25 -57 93 -124 134 -132
15 -3 27 -9 27 -14 0 -5 7 -6 15 -3 8 4 21 1 29 -5 7 -6 15 -8 18 -5 4 3 21 8
40 10 45 7 117 42 141 70 11 13 25 20 31 17 6 -3 8 -3 4 1 -4 5 3 26 15 49 31
61 33 159 3 223 -53 114 -175 171 -299 139z"/>
</g>
</svg>
